<svg width="20" height="20" viewBox="0 0 20 20" fill="none" xmlns="http://www.w3.org/2000/svg">
<g clip-path="url(#clip0_369_584)">
<path d="M10.02 2.99978C5.89718 2.99026 2.50627 6.14886 2.50001 10.0049C2.49375 13.8448 5.86274 16.9954 9.97848 16.9998C14.1114 17.0034 17.4922 13.877 17.4992 10.0437C17.5071 6.17814 14.142 3.00929 10.02 2.99978ZM9.96987 15.7059C6.59384 15.7044 3.87453 13.1511 3.87766 9.98734C3.88079 6.82654 6.62045 4.30683 10.0505 4.31123C13.4077 4.31562 16.1239 6.8646 16.1208 10.0071C16.1184 13.1803 13.3897 15.7081 9.96987 15.7059Z" fill="white"/>
<path d="M13.0313 7.8748C12.6924 7.96115 12.3574 8.05775 12.0184 8.14557C11.2177 8.35268 10.4263 8.57516 9.56997 8.48149C8.69641 8.38562 7.88078 8.09435 7.0401 7.8909C6.55322 7.77307 6.19002 7.91578 6.06243 8.29267C5.93797 8.65859 6.17045 8.99377 6.65341 9.12623C7.21387 9.27992 7.77667 9.42848 8.34104 9.56899C8.50855 9.61071 8.61657 9.65681 8.61344 9.85075C8.60327 10.4311 8.64632 11.0078 8.37 11.5647C8.14692 12.0141 7.99741 12.4963 7.82442 12.9662C7.7618 13.1367 7.66709 13.3028 7.68822 13.4931C7.67961 13.6717 7.73284 13.8283 7.8706 13.9578C8.2432 14.3106 8.84592 14.1532 9.051 13.6365C9.27644 13.0679 9.48543 12.4941 9.69521 11.9204C9.74922 11.7725 9.81811 11.6357 10.0021 11.6372C10.1852 11.6386 10.2541 11.7762 10.3081 11.9233C10.5148 12.4854 10.7245 13.0459 10.9406 13.6051C11.1104 14.0449 11.4729 14.2374 11.8728 14.1115C12.2642 13.9885 12.413 13.6277 12.2501 13.1711C12.139 12.8608 12.0137 12.5541 11.8979 12.2453C11.6247 11.5157 11.2795 10.8051 11.3797 9.99346C11.4095 9.74829 11.4337 9.60705 11.7359 9.54557C12.3057 9.42994 12.867 9.26967 13.4251 9.10794C13.8462 8.98645 14.0552 8.63005 13.9393 8.28901C13.8188 7.9392 13.4501 7.76795 13.0313 7.8748Z" fill="white"/>
<path d="M10.0371 7.81181C10.6422 7.78693 11.1839 7.25781 11.1682 6.70674C11.1518 6.12054 10.6046 5.64338 9.96121 5.65436C9.35144 5.66461 8.81447 6.18128 8.83247 6.7404C8.85126 7.32221 9.42972 7.83669 10.0371 7.81181Z" fill="white"/>
</g>
<defs>
<clipPath id="clip0_369_584">
<rect width="15" height="14" fill="white" transform="translate(2.5 3)"/>
</clipPath>
</defs>
</svg>
