<svg width="20" height="20" viewBox="0 0 20 20" fill="none" xmlns="http://www.w3.org/2000/svg">
<path d="M18.9873 6.21186C18.9789 5.52542 18.5315 5.05085 17.89 5.05085C17.7043 5.05085 17.5186 5.09322 17.3329 5.16949C17.0966 5.27119 16.8603 5.38136 16.6324 5.48305C16.5226 5.5339 16.4129 5.58475 16.3032 5.63559L14.7838 6.32203L14.1339 6.61864L14.0664 6.65254L14.0242 6.58475C13.9313 6.42373 13.9397 6.28814 13.9397 6.17797C13.9397 6.15254 13.9397 6.11864 13.9397 6.09322C13.9313 4.84746 13.1379 4.0339 11.9308 4.02542C10.4368 4.00847 8.93435 4 7.46565 4C5.98851 4 4.50293 4.00847 3.05111 4.01695C1.78499 4.02542 1 4.83898 1 6.14407V6.72881C1 9.0678 1 11.4915 1 13.8644C1 14.5 1.20258 15.0339 1.58242 15.4153C1.96225 15.7881 2.50246 15.9915 3.13552 15.9915H3.23681C4.04713 15.9915 4.87433 15.9915 5.6762 15.983C6.47808 15.983 7.29684 15.9746 8.11559 15.9746C9.49144 15.9746 10.6141 15.9831 11.6523 16C11.6692 16 11.686 16 11.7029 16C12.412 16 13.0281 15.7627 13.4333 15.322C13.8047 14.9237 13.9819 14.3983 13.9397 13.7797C13.9313 13.6186 13.9482 13.5254 13.9988 13.4661C14.0242 13.4407 14.0664 13.4068 14.1423 13.4068C14.2014 13.4068 14.2774 13.4322 14.3871 13.4746C15.4338 13.9661 16.396 14.4068 17.3329 14.8136C17.5186 14.8983 17.7128 14.9407 17.8985 14.9407C18.54 14.9407 18.9873 14.4661 18.9873 13.7881C19.0042 11.2288 19.0042 8.67797 18.9873 6.21186ZM12.6314 13.839C12.6314 14.4915 12.4542 14.661 11.7958 14.661C11.188 14.661 10.5803 14.661 9.97257 14.661H4.97562C4.36788 14.661 3.76858 14.661 3.16084 14.661C2.49402 14.661 2.31676 14.483 2.31676 13.8051C2.31676 11.0169 2.31676 8.51695 2.31676 6.16949C2.31676 5.52542 2.47714 5.36441 3.1102 5.36441C4.44385 5.36441 5.77749 5.36441 7.11114 5.36441C8.68113 5.36441 10.2596 5.36441 11.8295 5.36441C12.4626 5.36441 12.6314 5.52542 12.6314 6.16949C12.6314 8.77966 12.6314 11.3644 12.6314 13.839ZM17.6115 13.3898C17.5777 13.4237 17.5355 13.4407 17.4764 13.4407C17.4174 13.4407 17.3414 13.4153 17.2401 13.3729C16.3623 12.9492 15.4253 12.5085 14.2774 11.9915C14.0326 11.8814 13.9313 11.7288 13.9397 11.4746C13.9566 10.5424 13.9566 9.55085 13.9397 8.52542C13.9397 8.27119 14.041 8.11017 14.2774 8C15.2227 7.5678 16.2356 7.11017 17.2401 6.61864C17.3414 6.5678 17.4174 6.55085 17.4764 6.55085C17.5271 6.55085 17.5777 6.5678 17.6115 6.60169C17.679 6.66949 17.6875 6.78814 17.679 6.92373C17.6706 7.66949 17.6706 8.42373 17.679 9.16102C17.679 9.44068 17.679 9.72034 17.679 10C17.679 10.2797 17.679 10.5508 17.679 10.8305C17.679 11.5678 17.679 12.3305 17.6875 13.0763C17.679 13.2203 17.6706 13.3305 17.6115 13.3898Z" fill="white"/>
</svg>
