<svg width="20" height="20" viewBox="0 0 20 20" fill="none" xmlns="http://www.w3.org/2000/svg">
<g clip-path="url(#clip0_369_583)">
<path d="M4.50221 15.1169C4.50221 15.2068 4.48914 15.2999 4.52912 15.3859C4.62138 16.2946 5.3625 16.9876 6.30121 16.9922C8.75368 17.0032 11.2054 17.0024 13.6579 16.993C14.6796 16.9891 15.4868 16.1828 15.4899 15.1286C15.503 11.3778 15.5038 7.62624 15.4899 3.87546C15.4861 2.82436 14.6642 2.01962 13.6125 2.01023C11.9004 1.99381 10.189 2.00163 8.47768 2.0071C7.9449 2.00867 7.4867 2.21513 7.10922 2.59991C6.41345 3.30846 5.71308 4.0131 5.02577 4.73025C4.75592 5.01101 4.54142 5.33401 4.52989 5.75241C4.48838 5.83844 4.50221 5.93072 4.50221 6.02144C4.50145 9.05273 4.50145 12.0848 4.50221 15.1169ZM5.84531 15.1669C5.84608 12.4305 5.85069 9.69402 5.84685 6.95757C5.84685 6.73547 5.91219 6.66508 6.13053 6.66977C6.78171 6.68229 7.43365 6.67916 8.08559 6.67368C8.70294 6.66821 9.03429 6.33192 9.03968 5.7094C9.04429 5.07123 9.05505 4.4315 9.03429 3.79412C9.02507 3.49694 9.09349 3.39449 9.40793 3.39918C10.7626 3.41873 12.1172 3.407 13.471 3.40778C14.02 3.40856 14.1453 3.53526 14.1461 4.09913C14.1476 5.91039 14.1468 7.72165 14.1468 9.53291C14.1468 11.3442 14.1484 13.1554 14.1461 14.9667C14.1453 15.4899 14.023 15.6127 13.5149 15.6135C12.0326 15.615 10.5504 15.6142 9.06812 15.6142C8.16094 15.6142 7.25375 15.6127 6.34657 15.6142C6.04673 15.6142 5.84531 15.504 5.84531 15.1669Z" fill="white"/>
<path d="M7.8072 8.58803C9.26254 8.58568 10.7179 8.58646 12.1724 8.58803C12.8521 8.58881 13.1842 8.91415 13.198 9.60862C13.2088 10.1553 13.2049 10.7019 13.1988 11.2486C13.1911 11.9626 12.8605 12.3005 12.1648 12.3052C11.4498 12.3099 10.7348 12.306 10.0206 12.306C9.26715 12.306 8.5145 12.3161 7.76107 12.3028C7.09375 12.2903 6.78623 11.9595 6.78239 11.2807C6.77931 10.734 6.78008 10.1874 6.78162 9.64069C6.78393 8.91102 7.09606 8.58881 7.8072 8.58803Z" fill="white"/>
<path d="M7.27873 13.2836C8.00448 13.2859 8.72946 13.2851 9.45521 13.2836C9.75658 13.2828 9.958 13.4118 9.95339 13.7348C9.94878 14.0547 9.74581 14.1853 9.44675 14.1845C9.09003 14.1829 8.73407 14.1845 8.37735 14.1837C8.00832 14.1837 7.6393 14.1869 7.27028 14.1829C6.96583 14.1798 6.77901 14.0218 6.79054 13.7067C6.80131 13.4095 6.99428 13.2828 7.27873 13.2836Z" fill="white"/>
<path d="M10.5127 6.70802C10.8702 6.71428 11.2277 6.70959 11.5852 6.70959C11.9557 6.70959 12.3263 6.71115 12.6961 6.70959C12.9867 6.70802 13.1689 6.85036 13.1735 7.14676C13.1789 7.45802 12.9982 7.62226 12.6907 7.62304C11.9627 7.62538 11.2346 7.6246 10.5065 7.62382C10.2044 7.62382 9.99914 7.46819 10.003 7.16318C10.0076 6.86209 10.2029 6.70255 10.5127 6.70802Z" fill="white"/>
<path d="M12.6107 5.7453C12.2671 5.75312 11.9234 5.74687 11.5806 5.74608C11.2246 5.7453 10.8679 5.75234 10.5119 5.74374C10.2221 5.7367 10.0037 5.59984 10.0099 5.2831C10.0153 4.97184 10.2113 4.84515 10.5219 4.8514C11.2215 4.8647 11.9211 4.86548 12.6207 4.85062C12.9321 4.84358 13.1558 4.92726 13.185 5.27137C13.2089 5.56386 12.9928 5.7367 12.6107 5.7453Z" fill="white"/>
</g>
<defs>
<clipPath id="clip0_369_583">
<rect width="11" height="15" fill="white" transform="translate(4.5 2)"/>
</clipPath>
</defs>
</svg>
