<svg width="27" height="39" viewBox="0 0 27 39" fill="none" xmlns="http://www.w3.org/2000/svg">
<g clip-path="url(#clip0_271_340)">
<path d="M0.00219188 34.1314C0.000192182 34.1954 -0.00180752 34.2914 0.00419159 34.3294L0.0581836 34.4434L0.0721815 34.5794C0.274152 36.5392 1.87791 37.9691 3.88762 37.9771C6.97316 37.9911 10.1747 37.9971 13.4042 37.9971C16.5097 37.9971 19.7413 37.9911 23.0088 37.9791C25.2624 37.9711 26.9682 36.2593 26.9762 33.9974C27.0102 24.282 27.0102 14.5806 26.9762 5.15918C26.9682 2.90932 25.2104 1.19543 22.8868 1.17543C21.1291 1.15943 19.2193 1.15143 17.0477 1.15143C14.952 1.15143 12.8203 1.15943 10.7566 1.16543L9.54478 1.16943C8.40294 1.17343 7.39509 1.6054 6.55122 2.45335C6.07529 2.93132 5.59936 3.40729 5.12343 3.88526C3.81163 5.19718 2.45583 6.55509 1.14002 7.90701C0.424129 8.64296 0.0961779 9.28492 0.0761809 9.99088L0.0721815 10.1629L0.00219188 10.3049C-0.00380722 10.3409 0.000192182 10.4289 0.00219188 10.4948C0.00419159 10.5488 0.00619129 10.6028 0.00619129 10.6568C0.00419159 18.4284 0.00419159 26.1999 0.00619129 33.9694C0.00619129 34.0234 0.00419159 34.0774 0.00219188 34.1314ZM1.89991 13.1167C1.89991 12.7407 1.9439 12.2647 2.29985 11.9088C2.69179 11.5168 3.23971 11.5168 3.41768 11.5168C3.44368 11.5168 3.47168 11.5168 3.49967 11.5188C4.14958 11.5348 4.84947 11.5428 5.70135 11.5428C6.24926 11.5428 6.79918 11.5388 7.3471 11.5368C7.68505 11.5348 8.021 11.5328 8.35895 11.5328C9.73075 11.5288 10.1967 11.0688 10.2007 9.7149C10.2027 9.32292 10.2047 8.93095 10.2087 8.53697C10.2187 7.38704 10.2287 6.19712 10.1847 5.03919C10.1667 4.55322 10.2007 4.00325 10.5926 3.59528C10.9886 3.1833 11.5525 3.13531 11.9404 3.13531C11.9644 3.13531 11.9864 3.13531 12.0124 3.13531C13.4002 3.1573 14.866 3.1673 16.7697 3.1673C17.6736 3.1673 18.5794 3.1653 19.4853 3.1633C20.3912 3.1613 21.297 3.1593 22.2029 3.1593H22.4669C24.3946 3.1593 25.0785 3.84526 25.0785 5.77314C25.0805 9.24893 25.0805 12.7247 25.0805 16.1985V19.6003C25.0805 20.9182 25.0805 22.2381 25.0805 23.556C25.0805 26.8578 25.0825 30.2716 25.0765 33.6294C25.0745 35.3353 24.3846 36.0333 22.6988 36.0433C22.1189 36.0473 21.537 36.0473 20.9571 36.0473C20.5451 36.0473 20.1332 36.0473 19.7233 36.0473C19.3193 36.0473 18.9134 36.0473 18.5094 36.0473H14.82C13.4922 36.0473 12.1664 36.0473 10.8386 36.0473C8.61091 36.0473 6.38524 36.0493 4.15957 36.0533H4.14958C3.70964 36.0533 3.14373 36.0133 2.6718 35.6993C2.31985 35.4653 1.89991 34.9893 1.89991 34.0634L1.90391 29.8356C1.90591 24.352 1.91191 18.6883 1.89991 13.1167Z" fill="#0097FF"/>
</g>
<path d="M8.89216 32.7739C8.46578 32.736 8.16258 32.551 8.0034 32.1851C7.84612 31.8234 7.8518 31.4281 8.11521 31.1127C8.498 30.6542 8.88268 30.1937 9.29769 29.7711C10.3248 28.7302 11.2344 27.6157 11.5584 26.047C11.6683 25.5171 11.8597 25.3931 12.307 25.8094C13.2867 26.7241 13.3568 27.8912 12.2728 29.2853C11.3974 30.4124 10.3873 31.4155 9.42276 32.4542C9.27116 32.6161 9.04376 32.6855 8.89216 32.7739Z" fill="#0097FF"/>
<path d="M17.9184 12.0929C17.9449 13.1821 17.0903 14.1662 16.0935 14.1978C15.0778 14.2293 14.2269 13.344 14.1833 12.2064C14.1379 11.0541 15.0115 10.0363 16.0423 10.0363C17.041 10.0363 17.8919 10.97 17.9184 12.0929Z" fill="#0097FF"/>
<path d="M20.0922 22.2136C18.9818 21.2673 18.7733 19.8227 18.3166 18.519C18.1897 18.1552 18.0456 17.823 17.8391 17.5223C17.2061 16.5992 16.3572 16.0714 15.3453 15.8127C12.6127 15.1146 9.09932 17.3141 8.31669 20.2244C8.14424 20.8636 8.19351 21.4419 8.77717 21.7363C9.32293 22.0096 9.81942 21.7342 9.9805 21.1307C10.3519 19.7302 11.2274 18.9627 12.4345 18.4917C12.3587 19.3223 12.0271 20.0688 11.7978 20.8468C11.3222 22.4638 11.5268 23.2608 12.7112 24.3227C13.7099 25.2185 14.6782 26.1627 15.7186 26.9954C16.361 27.5084 16.6358 28.1603 16.7741 28.9741C16.9371 29.9288 17.1417 30.8729 17.3426 31.8192C17.4714 32.4269 17.7841 32.8706 18.3924 32.7381C19.0386 32.5993 19.2092 32.061 19.0841 31.386C19.014 31.0117 18.9249 30.6416 18.8775 30.2652C18.5952 28.051 18.1271 25.9566 16.1525 24.7832C15.7678 24.554 15.783 24.1734 15.891 23.7844C16.2056 22.6636 16.5277 21.5428 16.9352 20.1213C17.1682 21.7384 17.8883 22.7057 18.7942 23.5489C19.2509 23.9736 19.6791 24.0746 20.1169 23.6015C20.5243 23.1493 20.5016 22.5627 20.0922 22.2136ZM15.476 18.3886C15.0913 19.8101 14.7104 21.2316 14.3163 22.6489C14.2632 22.8381 14.0946 22.9054 13.9448 22.7708C13.7137 22.5627 13.3233 22.4113 13.4313 21.9907C13.7724 20.666 14.1571 19.3559 14.5228 18.0375C14.6138 17.7073 14.8298 17.7326 15.0458 17.8188C15.2713 17.9155 15.5594 17.9807 15.476 18.3886Z" fill="#0097FF"/>
<defs>
<clipPath id="clip0_271_340">
<rect width="27" height="36.8457" fill="white" transform="translate(0 1.15143)"/>
</clipPath>
</defs>
</svg>
