<svg width="20" height="20" viewBox="0 0 20 20" fill="none" xmlns="http://www.w3.org/2000/svg">
<g clip-path="url(#clip0_369_586)">
<path d="M8.78636 13.4073C8.25904 12.9412 8.23196 12.9316 8.02058 13.6248C7.78288 14.4051 7.40827 15.0592 6.81476 15.5917C6.39576 15.9683 6.02792 16.4096 5.64654 16.8318C5.45848 17.0397 5.40056 17.29 5.52468 17.5666C5.64353 17.8305 5.84663 17.9616 6.11668 18C6.33859 17.9808 6.50709 17.8504 6.6613 17.6873C7.1322 17.1908 7.5873 16.6759 8.08076 16.2074C8.55241 15.7596 8.86609 15.2287 9.07371 14.597C9.31066 13.8806 9.33097 13.8886 8.78636 13.4073Z" fill="white"/>
<path d="M11.3087 5.50369C12.0218 5.49489 12.6198 4.85045 12.6213 4.08927C12.6228 3.29051 11.994 2.62287 11.2583 2.64366C10.5444 2.66365 9.97874 3.3001 9.97949 4.08287C9.97949 4.88563 10.5662 5.51248 11.3087 5.50369Z" fill="white"/>
<path d="M14.1461 10.7552C13.6015 10.2171 13.2939 9.57424 13.1058 8.81946C12.9569 8.22059 12.6341 7.70487 12.1768 7.30109C11.2764 6.50633 10.242 6.32803 9.14379 6.62786C7.64459 7.03564 6.31239 7.70407 5.77153 9.44391C5.61883 9.93404 5.75423 10.3682 6.1326 10.5113C6.50797 10.6536 6.86528 10.453 7.0097 9.94364C7.26998 9.02574 7.90411 8.57719 8.77595 8.25977C8.58563 8.85384 8.42014 9.36716 8.2554 9.88127C7.91163 10.9559 8.08164 11.5516 8.92489 12.2624C9.71924 12.9324 10.5053 13.6128 11.3012 14.2797C11.5276 14.4691 11.6615 14.6874 11.7194 14.9993C11.8654 15.7836 12.0459 16.5608 12.2182 17.3388C12.325 17.8209 12.6153 18.0624 12.9757 17.9824C13.3879 17.8913 13.5729 17.5291 13.4706 17.0277C13.3029 16.2074 13.1314 15.3878 12.9764 14.5651C12.8816 14.059 12.6755 13.648 12.2738 13.3386C11.9301 13.0739 11.6149 12.7669 11.2869 12.479C11.1786 12.3839 11.071 12.2903 11.1229 12.1128C11.3711 11.2645 11.6186 10.4162 11.8819 9.51747C11.9451 9.62142 11.9993 9.67179 12.006 9.72856C12.1219 10.6385 12.7176 11.195 13.3044 11.7586C13.6045 12.0473 13.8904 12.0545 14.171 11.7874C14.4907 11.4828 14.5192 11.1238 14.1461 10.7552ZM10.8596 8.32693C10.5888 9.25362 10.3225 10.1811 10.054 11.1086C10.0322 11.1838 10.0104 11.2605 9.93814 11.2717C9.74482 11.2725 9.38901 10.796 9.44393 10.6113C9.69292 9.77493 9.95244 8.94259 10.2052 8.10785C10.3007 7.79282 10.4925 7.96233 10.6618 7.99351C10.8468 8.02789 10.9191 8.12384 10.8596 8.32693Z" fill="white"/>
</g>
<defs>
<clipPath id="clip0_369_586">
<rect width="8.95833" height="15.3571" fill="white" transform="translate(5.45996 2.64282)"/>
</clipPath>
</defs>
</svg>
