<svg width="20" height="20" viewBox="0 0 20 20" fill="none" xmlns="http://www.w3.org/2000/svg">
<g clip-path="url(#clip0_369_588)">
<path d="M16.9612 9.95397C16.9537 9.33807 16.7051 8.73474 16.1247 8.40872C15.2965 7.94365 14.4085 7.57521 13.5429 7.16985C13.4847 7.14235 13.4032 7.16356 13.3384 7.14471C12.9459 7.03158 12.4919 7.23034 12.1585 7.06772C11.6213 6.80534 11.0792 6.68435 10.4913 6.66943C10.4007 6.53745 10.4506 6.39054 10.4464 6.2515C10.4214 5.42192 10.4871 4.59076 10.4098 3.76119C10.2535 2.63073 9.10851 1.83021 7.93526 2.03054C6.72043 2.23872 6.02031 3.01331 6.01532 4.17362C6.0095 5.60889 6.01366 7.04337 6.01366 8.47864C6.01366 9.01912 6.01449 9.01755 5.479 8.93035C5.37174 8.91307 5.25948 8.90835 5.15056 8.91228C4.25253 8.9437 3.58816 9.32393 3.209 10.0985C2.829 10.8762 2.98782 11.5982 3.51832 12.2652C4.28995 13.2361 5.05493 14.2118 5.84237 15.1718C6.83601 16.3848 8.14812 17.0093 9.79034 16.9983C10.72 16.992 11.6496 16.992 12.5792 16.9991C13.0249 17.0023 13.4598 16.9716 13.8963 16.8695C15.5443 16.4838 16.7234 15.2802 16.9138 13.7051C17.0643 12.4592 16.9762 11.2046 16.9612 9.95397ZM15.4886 13.2786C15.4836 14.5269 14.3553 15.5976 13.0265 15.6078C11.9032 15.6165 10.779 15.6063 9.65563 15.611C8.63039 15.6149 7.79058 15.237 7.16279 14.4899C6.32048 13.4883 5.50976 12.4631 4.69157 11.4434C4.3731 11.0459 4.40886 10.6524 4.76224 10.412C5.12395 10.1669 5.49563 10.2548 5.82407 10.6689C6.03943 10.9407 6.2523 11.214 6.461 11.4906C6.61982 11.7019 6.7936 11.8912 7.10542 11.8095C7.448 11.72 7.46712 11.4434 7.46878 11.1795C7.4746 10.0058 7.47128 8.83215 7.47128 7.65848C7.47128 6.5241 7.46712 5.38971 7.47377 4.25532C7.4771 3.71719 7.69662 3.43988 8.11985 3.39746C8.63621 3.34561 8.97131 3.65356 8.9763 4.22075C8.98628 5.3685 8.97879 6.51624 8.97962 7.6632C8.98045 8.38594 9.23406 8.53206 9.90675 8.19661C10.409 7.94601 11.1473 8.0552 11.5332 8.44093C11.7269 8.63497 11.9389 8.68367 12.2059 8.57133C12.536 8.43307 12.8835 8.46842 13.2253 8.5352C13.4398 8.57762 13.6094 8.68132 13.6868 8.88636C13.804 9.19509 14.0601 9.26972 14.3786 9.27286C15.2982 9.28308 15.4886 9.47162 15.4895 10.3444C15.4895 11.3225 15.4928 12.3005 15.4886 13.2786Z" fill="white"/>
<path d="M9.46597 10.4749C9.12339 10.4781 9.01696 10.6878 9.01447 10.9659C9.00948 11.4208 9.0128 11.8756 9.0128 12.3305C9.0128 12.772 9.01197 13.2143 9.0128 13.6565C9.01364 13.9566 9.14252 14.1758 9.48926 14.1758C9.83267 14.1758 9.96654 13.9606 9.96654 13.6589C9.96654 12.7618 9.9682 11.8654 9.96488 10.9683C9.96404 10.6619 9.81604 10.471 9.46597 10.4749Z" fill="white"/>
<path d="M11.9599 10.98C11.9565 10.6783 11.8193 10.4732 11.4676 10.4756C11.1333 10.478 11.0045 10.6838 11.0028 10.9635C10.9961 11.8622 10.9936 12.7601 11.0045 13.6588C11.0078 13.9463 11.1417 14.1867 11.4934 14.171C11.8276 14.1561 11.964 13.9393 11.9623 13.636C11.9607 13.2063 11.9615 12.7766 11.9615 12.3469C11.9607 11.8912 11.9648 11.4356 11.9599 10.98Z" fill="white"/>
<path d="M13.9396 12.3053C13.9396 11.8623 13.9347 11.4184 13.9413 10.9753C13.9455 10.6878 13.8532 10.489 13.5081 10.4749C13.173 10.4616 13.0084 10.6509 13.0034 10.9274C12.9867 11.8528 12.9876 12.779 13.0034 13.7045C13.0084 13.9778 13.1688 14.1884 13.4965 14.1735C13.8149 14.1593 13.9496 13.9747 13.9421 13.6746C13.9313 13.2182 13.9396 12.7618 13.9396 12.3053Z" fill="white"/>
</g>
<defs>
<clipPath id="clip0_369_588">
<rect width="14" height="15" fill="white" transform="translate(3 2)"/>
</clipPath>
</defs>
</svg>
