<svg width="20" height="20" viewBox="0 0 20 20" fill="none" xmlns="http://www.w3.org/2000/svg">
<g clip-path="url(#clip0_369_581)">
<path d="M4.50513 15.0656C4.50513 15.1558 4.49214 15.2475 4.53187 15.3338C4.62353 16.2392 5.35992 16.9294 6.29187 16.9332C8.72714 16.9441 11.1632 16.9433 13.5985 16.934C14.6137 16.9301 15.415 16.1265 15.418 15.0765C15.431 11.3397 15.431 7.60371 15.418 3.86692C15.4142 2.82003 14.5984 2.01873 13.5534 2.00941C11.853 1.99386 10.1533 2.00163 8.45367 2.00707C7.9243 2.00863 7.46978 2.21459 7.09471 2.59775C6.40416 3.30422 5.70825 4.00526 5.02534 4.71951C4.75721 4.9993 4.54409 5.32106 4.53263 5.73764C4.49138 5.82314 4.50513 5.91562 4.50513 6.00578C4.50437 9.02521 4.50437 12.0454 4.50513 15.0656ZM5.83888 15.099C5.84117 12.3858 5.84499 9.67339 5.84041 6.96018C5.83964 6.72547 5.90075 6.64386 6.13832 6.65008C6.76013 6.66562 7.38193 6.65707 8.00374 6.65474C8.69277 6.65241 9.00978 6.33298 9.01207 5.63816C9.01437 5.02806 9.02888 4.41718 9.00596 3.80785C8.9945 3.49697 9.0602 3.38505 9.39402 3.39049C10.7262 3.41225 12.0592 3.39904 13.3914 3.39982C13.9613 3.39982 14.0835 3.52339 14.0843 4.10474C14.0851 5.89619 14.0851 7.68764 14.0843 9.47832C14.0843 11.2954 14.0858 13.1125 14.0828 14.9304C14.082 15.427 13.9544 15.5553 13.4785 15.5584C12.9453 15.5615 12.4121 15.5591 11.8797 15.5591C10.0525 15.5591 8.2245 15.5568 6.39728 15.5607C6.07874 15.5623 5.83812 15.4884 5.83888 15.099Z" fill="white"/>
<path d="M8.04355 9.98775C8.67681 9.9834 9.31008 9.9863 9.94334 9.9863C10.5636 9.9863 11.1847 9.9863 11.8049 9.9863C11.931 9.9863 12.0532 9.99718 12.1785 10.0291C12.5169 10.1154 12.646 10.3352 12.6467 10.6464C12.6467 10.9678 12.4863 11.1745 12.1517 11.2361C11.9913 11.2659 11.8263 11.2862 11.6629 11.2869C10.5101 11.2913 9.35744 11.292 8.20549 11.2862C8.03056 11.2855 7.84952 11.2659 7.68223 11.2187C7.30792 11.115 7.14063 10.7574 7.28042 10.4092C7.41563 10.0719 7.70897 9.98993 8.04355 9.98775Z" fill="white"/>
<path d="M7.94576 12.6383C8.60576 12.6332 9.26576 12.6369 9.92576 12.6369C10.5987 12.6369 11.2717 12.6332 11.944 12.6383C12.3954 12.642 12.6185 12.8233 12.6437 13.1882C12.6719 13.5973 12.4527 13.8816 12.0066 13.8882C10.6362 13.9078 9.26423 13.9056 7.89381 13.8867C7.4859 13.8809 7.21624 13.5734 7.22999 13.2281C7.24604 12.8567 7.49888 12.6412 7.94576 12.6383Z" fill="white"/>
</g>
<defs>
<clipPath id="clip0_369_581">
<rect width="12" height="15" fill="white" transform="translate(4 2)"/>
</clipPath>
</defs>
</svg>
